REM DIRINDEX 1\2,1\3,1\4,1\5
REM DIRNAME folder01,folder02,folder03,folder04,folder05
TITLE ""
FILE "CD2Track04.mp3" MP3
  TRACK 01 AUDIO
    TITLE "5:cjc155_1788"
    INDEX 01 00:00:00
  TRACK 02 AUDIO
    TITLE "0:"
    INDEX 01 00:01:34
  TRACK 03 AUDIO
    TITLE "2:cjc155_1789"
    INDEX 01 00:02:36
  TRACK 04 AUDIO
    TITLE "3:cjc155_1790"
    INDEX 01 00:03:59
  TRACK 05 AUDIO
    TITLE "2:cjc155_1791"
    INDEX 01 00:05:20
  TRACK 06 AUDIO
    TITLE "3:cjc155_1792"
    INDEX 01 00:07:29
  TRACK 07 AUDIO
    TITLE "2:cjc155_1793"
    INDEX 01 00:09:51
  TRACK 08 AUDIO
    TITLE "3:cjc155_1794"
    INDEX 01 00:12:12
  TRACK 09 AUDIO
    TITLE "2:cjc155_1795"
    INDEX 01 00:14:60
  TRACK 10 AUDIO
    TITLE "3:cjc155_1796"
    INDEX 01 00:16:00
  TRACK 11 AUDIO
    TITLE "2:cjc155_1797"
    INDEX 01 00:17:18
  TRACK 12 AUDIO
    TITLE "3:cjc155_1798"
    INDEX 01 00:19:24
  TRACK 13 AUDIO
    TITLE "2:cjc155_1799"
    INDEX 01 00:21:37
  TRACK 14 AUDIO
    TITLE "3:cjc155_1800"
    INDEX 01 00:22:64
  TRACK 15 AUDIO
    TITLE "2:cjc155_1801"
    INDEX 01 00:24:20
  TRACK 16 AUDIO
    TITLE "3:cjc155_1802"
    INDEX 01 00:25:52
  TRACK 17 AUDIO
    TITLE "2:cjc155_1803"
    INDEX 01 00:27:22
  TRACK 18 AUDIO
    TITLE "3:cjc155_1804"
    INDEX 01 00:28:60
  TRACK 19 AUDIO
    TITLE "2:cjc155_1805"
    INDEX 01 00:30:38
  TRACK 20 AUDIO
    TITLE "3:cjc155_1806"
    INDEX 01 00:32:23
  TRACK 21 AUDIO
    TITLE "2:cjc155_1807"
    INDEX 01 00:34:16
  TRACK 22 AUDIO
    TITLE "3:cjc155_1808"
    INDEX 01 00:35:64
  TRACK 23 AUDIO
    TITLE "2:cjc155_1809"
    INDEX 01 00:37:46
  TRACK 24 AUDIO
    TITLE "3:cjc155_1810"
    INDEX 01 00:39:07
  TRACK 25 AUDIO
    TITLE "2:cjc155_1811"
    INDEX 01 00:40:54
  TRACK 26 AUDIO
    TITLE "3:cjc155_1812"
    INDEX 01 00:42:39
  TRACK 27 AUDIO
    TITLE "2:cjc155_1813"
    INDEX 01 00:44:34
  TRACK 28 AUDIO
    TITLE "3:cjc155_1814"
    INDEX 01 00:45:65
  TRACK 29 AUDIO
    TITLE "2:cjc155_1815"
    INDEX 01 00:47:28
  TRACK 30 AUDIO
    TITLE "3:cjc155_1816"
    INDEX 01 00:48:73
  TRACK 31 AUDIO
    TITLE "2:cjc155_1817"
    INDEX 01 00:50:54
  TRACK 32 AUDIO
    TITLE "3:cjc155_1818"
    INDEX 01 00:52:00
  TRACK 33 AUDIO
    TITLE "2:cjc155_1819"
    INDEX 01 00:53:25
  TRACK 34 AUDIO
    TITLE "3:cjc155_1820"
    INDEX 01 00:54:58
  TRACK 35 AUDIO
    TITLE "2:cjc155_1821"
    INDEX 01 00:56:29
  TRACK 36 AUDIO
    TITLE "3:cjc155_1822"
    INDEX 01 00:58:40
  TRACK 37 AUDIO
    TITLE "2:cjc155_1823"
    INDEX 01 01:00:59
  TRACK 38 AUDIO
    TITLE "3:cjc155_1824"
    INDEX 01 01:02:08
  TRACK 39 AUDIO
    TITLE "2:cjc155_1825"
    INDEX 01 01:03:41
  TRACK 40 AUDIO
    TITLE "3:cjc155_1826"
    INDEX 01 01:06:51
  TRACK 41 AUDIO
    TITLE "2:cjc155_1827"
    INDEX 01 01:09:69
  TRACK 42 AUDIO
    TITLE "3:cjc155_1828"
    INDEX 01 01:11:05
  TRACK 43 AUDIO
    TITLE "2:cjc155_1829"
    INDEX 01 01:12:24
  TRACK 44 AUDIO
    TITLE "3:cjc155_1830"
    INDEX 01 01:14:59
  TRACK 45 AUDIO
    TITLE "2:cjc155_1831"
    INDEX 01 01:17:30
  TRACK 46 AUDIO
    TITLE "3:cjc155_1832"
    INDEX 01 01:19:21
  TRACK 47 AUDIO
    TITLE "2:cjc155_1833"
    INDEX 01 01:21:31
  TRACK 48 AUDIO
    TITLE "3:cjc155_1834"
    INDEX 01 01:22:70
  TRACK 49 AUDIO
    TITLE "2:cjc155_1835"
    INDEX 01 01:24:43
  TRACK 50 AUDIO
    TITLE "3:cjc155_1836"
    INDEX 01 01:26:07
  TRACK 51 AUDIO
    TITLE "2:cjc155_1837"
    INDEX 01 01:27:51
  TRACK 52 AUDIO
    TITLE "3:cjc155_1838"
    INDEX 01 01:30:50
  TRACK 53 AUDIO
    TITLE "2:cjc155_1839"
    INDEX 01 01:33:54
  TRACK 54 AUDIO
    TITLE "3:cjc155_1840"
    INDEX 01 01:35:61
  TRACK 55 AUDIO
    TITLE "2:cjc155_1841"
    INDEX 01 01:37:73
  TRACK 56 AUDIO
    TITLE "3:cjc155_1842"
    INDEX 01 01:39:21
  TRACK 57 AUDIO
    TITLE "2:cjc155_1843"
    INDEX 01 01:40:52
  TRACK 58 AUDIO
    TITLE "3:cjc155_1844"
    INDEX 01 01:42:16
  TRACK 59 AUDIO
    TITLE "2:cjc155_1845"
    INDEX 01 01:43:64
  TRACK 60 AUDIO
    TITLE "3:cjc155_1846"
    INDEX 01 01:45:34
  TRACK 61 AUDIO
    TITLE "2:cjc155_1847"
    INDEX 01 01:47:15
  TRACK 62 AUDIO
    TITLE "3:cjc155_1848"
    INDEX 01 01:51:27
  TRACK 63 AUDIO
    TITLE "2:cjc155_1849"
    INDEX 01 01:55:40
  TRACK 64 AUDIO
    TITLE "3:cjc155_1850"
    INDEX 01 01:57:17
  TRACK 65 AUDIO
    TITLE "2:cjc155_1851"
    INDEX 01 01:59:01
  TRACK 66 AUDIO
    TITLE "3:cjc155_1852"
    INDEX 01 02:00:65
  TRACK 67 AUDIO
    TITLE "2:cjc155_1853"
    INDEX 01 02:02:64
  TRACK 68 AUDIO
    TITLE "3:cjc155_1854"
    INDEX 01 02:05:38
  TRACK 69 AUDIO
    TITLE "2:cjc155_1855"
    INDEX 01 02:08:25
  TRACK 70 AUDIO
    TITLE "3:cjc155_1856"
    INDEX 01 02:09:54
  TRACK 71 AUDIO
    TITLE "2:cjc155_1857"
    INDEX 01 02:11:21
  TRACK 72 AUDIO
    TITLE "3:cjc155_1858"
    INDEX 01 02:13:36
  TRACK 73 AUDIO
    TITLE "2:cjc155_1859"
    INDEX 01 02:15:56
  TRACK 74 AUDIO
    TITLE "3:cjc155_1860"
    INDEX 01 02:17:36
  TRACK 75 AUDIO
    TITLE "2:cjc155_1861"
    INDEX 01 02:19:19
  TRACK 76 AUDIO
    TITLE "3:cjc155_1862"
    INDEX 01 02:21:32
  TRACK 77 AUDIO
    TITLE "2:cjc155_1863"
    INDEX 01 02:23:46
  TRACK 78 AUDIO
    TITLE "3:cjc155_1864"
    INDEX 01 02:25:45
  TRACK 79 AUDIO
    TITLE "2:cjc155_1865"
    INDEX 01 02:27:52
  TRACK 80 AUDIO
    TITLE "3:cjc155_1866"
    INDEX 01 02:29:09
  TRACK 81 AUDIO
    TITLE "2:cjc155_1867"
    INDEX 01 02:30:48
  TRACK 82 AUDIO
    TITLE "3:cjc155_1868"
    INDEX 01 02:32:69
  TRACK 83 AUDIO
    TITLE "2:cjc155_1869"
    INDEX 01 02:35:22
  TRACK 84 AUDIO
    TITLE "3:cjc155_1870"
    INDEX 01 02:36:33
  TRACK 85 AUDIO
    TITLE "2:cjc155_1871"
    INDEX 01 02:37:48
  TRACK 86 AUDIO
    TITLE "3:cjc155_1872"
    INDEX 01 02:38:71
  TRACK 87 AUDIO
    TITLE "2:cjc155_1873"
    INDEX 01 02:40:17
  TRACK 88 AUDIO
    TITLE "3:cjc155_1874"
    INDEX 01 02:42:45
  TRACK 89 AUDIO
    TITLE "2:cjc155_1875"
    INDEX 01 02:45:09
  TRACK 90 AUDIO
    TITLE "3:cjc155_1876"
    INDEX 01 02:46:39
  TRACK 91 AUDIO
    TITLE "2:cjc155_1877"
    INDEX 01 02:48:05
  TRACK 92 AUDIO
    TITLE "3:cjc155_1878"
    INDEX 01 02:50:00
  TRACK 93 AUDIO
    TITLE "2:cjc155_1879"
    INDEX 01 02:52:01
  TRACK 94 AUDIO
    TITLE "3:cjc155_1880"
    INDEX 01 02:53:53
  TRACK 95 AUDIO
    TITLE "2:cjc155_1881"
    INDEX 01 02:55:34
  TRACK 96 AUDIO
    TITLE "3:cjc155_1882"
    INDEX 01 02:57:00
  TRACK 97 AUDIO
    TITLE "2:cjc155_1883"
    INDEX 01 02:58:44
  TRACK 98 AUDIO
    TITLE "3:cjc155_1884"
    INDEX 01 02:59:62
  TRACK 99 AUDIO
    TITLE "2:cjc155_1885"
    INDEX 01 03:01:09
  TRACK 100 AUDIO
    TITLE "3:cjc155_1886"
    INDEX 01 03:02:38
  TRACK 101 AUDIO
    TITLE "2:cjc155_1887"
    INDEX 01 03:04:00
  TRACK 102 AUDIO
    TITLE "3:cjc155_1888"
    INDEX 01 03:07:12
  TRACK 103 AUDIO
    TITLE "2:cjc155_1889"
    INDEX 01 03:10:34
  TRACK 104 AUDIO
    TITLE "3:cjc155_1890"
    INDEX 01 03:11:59
  TRACK 105 AUDIO
    TITLE "2:cjc155_1891"
    INDEX 01 03:13:21
  TRACK 106 AUDIO
    TITLE "3:cjc155_1892"
    INDEX 01 03:14:53
  TRACK 107 AUDIO
    TITLE "2:cjc155_1893"
    INDEX 01 03:16:25
  TRACK 108 AUDIO
    TITLE "3:cjc155_1894"
    INDEX 01 03:18:39
  TRACK 109 AUDIO
    TITLE "2:cjc155_1895"
    INDEX 01 03:20:60
  TRACK 110 AUDIO
    TITLE "3:cjc155_1896"
    INDEX 01 03:23:19
  TRACK 111 AUDIO
    TITLE "2:cjc155_1897"
    INDEX 01 03:25:51
  TRACK 112 AUDIO
    TITLE "3:cjc155_1898"
    INDEX 01 03:26:62
  TRACK 113 AUDIO
    TITLE "2:cjc155_1899"
    INDEX 01 03:28:06
  TRACK 114 AUDIO
    TITLE "3:cjc155_1900"
    INDEX 01 03:29:33
  TRACK 115 AUDIO
    TITLE "2:cjc155_1901"
    INDEX 01 03:30:72
  TRACK 116 AUDIO
    TITLE "3:cjc155_1902"
    INDEX 01 03:32:24
  TRACK 117 AUDIO
    TITLE "2:cjc155_1903"
    INDEX 01 03:33:58
  TRACK 118 AUDIO
    TITLE "3:cjc155_1904"
    INDEX 01 03:35:16
  TRACK 119 AUDIO
    TITLE "2:cjc155_1905"
    INDEX 01 03:36:51
  TRACK 120 AUDIO
    TITLE "3:cjc155_1906"
    INDEX 01 03:37:70
  TRACK 121 AUDIO
    TITLE "2:cjc155_1907"
    INDEX 01 03:39:20
  TRACK 122 AUDIO
    TITLE "3:cjc155_1908"
    INDEX 01 03:42:18
  TRACK 123 AUDIO
    TITLE "2:cjc155_1909"
    INDEX 01 03:45:22
  TRACK 124 AUDIO
    TITLE "3:cjc155_1910"
    INDEX 01 03:47:27
  TRACK 125 AUDIO
    TITLE "2:cjc155_1911"
    INDEX 01 03:49:42
  TRACK 126 AUDIO
    TITLE "3:cjc155_1912"
    INDEX 01 03:51:11
  TRACK 127 AUDIO
    TITLE "2:cjc155_1913"
    INDEX 01 03:52:70
  TRACK 128 AUDIO
    TITLE "3:cjc155_1914"
    INDEX 01 03:55:58
  TRACK 129 AUDIO
    TITLE "2:cjc155_1915"
    INDEX 01 03:58:62
  TRACK 130 AUDIO
    TITLE "3:cjc155_1916"
    INDEX 01 04:00:00
  TRACK 131 AUDIO
    TITLE "2:cjc155_1917"
    INDEX 01 04:01:25
  TRACK 132 AUDIO
    TITLE "3:cjc155_1918"
    INDEX 01 04:04:36
  TRACK 133 AUDIO
    TITLE "2:cjc155_1919"
    INDEX 01 04:07:51
  TRACK 134 AUDIO
    TITLE "3:cjc155_1920"
    INDEX 01 04:09:11
  TRACK 135 AUDIO
    TITLE "2:cjc155_1921"
    INDEX 01 04:10:52
  TRACK 136 AUDIO
    TITLE "3:cjc155_1922"
    INDEX 01 04:13:11
  TRACK 137 AUDIO
    TITLE "2:cjc155_1923"
    INDEX 01 04:15:57
  TRACK 138 AUDIO
    TITLE "3:cjc155_1924"
    INDEX 01 04:18:26
  TRACK 139 AUDIO
    TITLE "2:cjc155_1925"
    INDEX 01 04:20:74
  TRACK 140 AUDIO
    TITLE "3:cjc155_1926"
    INDEX 01 04:22:16
  TRACK 141 AUDIO
    TITLE "2:cjc155_1927"
    INDEX 01 04:23:47
  TRACK 142 AUDIO
    TITLE "3:cjc155_1928"
    INDEX 01 04:25:32
  TRACK 143 AUDIO
    TITLE "2:cjc155_1929"
    INDEX 01 04:27:35
  TRACK 144 AUDIO
    TITLE "3:cjc155_1930"
    INDEX 01 04:29:26
  TRACK 145 AUDIO
    TITLE "2:cjc155_1931"
    INDEX 01 04:31:46
  TRACK 146 AUDIO
    TITLE "3:cjc155_1932"
    INDEX 01 04:33:10
  TRACK 147 AUDIO
    TITLE "2:cjc155_1933"
    INDEX 01 04:34:48
  TRACK 148 AUDIO
    TITLE "3:cjc155_1934"
    INDEX 01 04:37:06
  TRACK 149 AUDIO
    TITLE "2:cjc155_1935"
    INDEX 01 04:39:46
  TRACK 150 AUDIO
    TITLE "3:cjc155_1936"
    INDEX 01 04:41:39
  TRACK 151 AUDIO
    TITLE "2:cjc155_1937"
    INDEX 01 04:43:39
  TRACK 152 AUDIO
    TITLE "3:cjc155_1938"
    INDEX 01 04:45:34
  TRACK 153 AUDIO
    TITLE "2:cjc155_1939"
    INDEX 01 04:47:41
  TRACK 154 AUDIO
    TITLE "3:cjc155_1940"
    INDEX 01 04:50:42
  TRACK 155 AUDIO
    TITLE "2:cjc155_1941"
    INDEX 01 04:53:42
  TRACK 156 AUDIO
    TITLE "3:cjc155_1942"
    INDEX 01 04:54:71
  TRACK 157 AUDIO
    TITLE "2:cjc155_1943"
    INDEX 01 04:56:28
  TRACK 158 AUDIO
    TITLE "3:cjc155_1944"
    INDEX 01 04:57:40
  TRACK 159 AUDIO
    TITLE "2:cjc155_1945"
    INDEX 01 04:58:61
  TRACK 160 AUDIO
    TITLE "3:cjc155_1946"
    INDEX 01 05:01:16
  TRACK 161 AUDIO
    TITLE "2:cjc155_1947"
    INDEX 01 05:03:60
  TRACK 162 AUDIO
    TITLE "3:cjc155_1948"
    INDEX 01 05:05:00
  TRACK 163 AUDIO
    TITLE "2:cjc155_1949"
    INDEX 01 05:06:25
  TRACK 164 AUDIO
    TITLE "3:cjc155_1950"
    INDEX 01 05:09:23
  TRACK 165 AUDIO
    TITLE "2:cjc155_1951"
    INDEX 01 05:12:29
  TRACK 166 AUDIO
    TITLE "3:cjc155_1952"
    INDEX 01 05:14:32
  TRACK 167 AUDIO
    TITLE "2:cjc155_1953"
    INDEX 01 05:16:45
  TRACK 168 AUDIO
    TITLE "3:cjc155_1954"
    INDEX 01 05:19:26
  TRACK 169 AUDIO
    TITLE "2:cjc155_1955"
    INDEX 01 05:22:20
  TRACK 170 AUDIO
    TITLE "3:cjc155_1956"
    INDEX 01 05:25:09
  TRACK 171 AUDIO
    TITLE "2:cjc155_1957"
    INDEX 01 05:28:09
  TRACK 172 AUDIO
    TITLE "3:cjc155_1958"
    INDEX 01 05:29:32
  TRACK 173 AUDIO
    TITLE "2:cjc155_1959"
    INDEX 01 05:30:55
  TRACK 174 AUDIO
    TITLE "3:cjc155_1960"
    INDEX 01 05:32:44
  TRACK 175 AUDIO
    TITLE "2:cjc155_1961"
    INDEX 01 05:34:37
  TRACK 176 AUDIO
    TITLE "3:cjc155_1962"
    INDEX 01 05:36:55
  TRACK 177 AUDIO
    TITLE "2:cjc155_1963"
    INDEX 01 05:39:07
  TRACK 178 AUDIO
    TITLE "3:cjc155_1964"
    INDEX 01 05:41:27
  TRACK 179 AUDIO
    TITLE "2:cjc155_1965"
    INDEX 01 05:43:59
  TRACK 180 AUDIO
    TITLE "3:cjc155_1966"
    INDEX 01 05:45:07
  TRACK 181 AUDIO
    TITLE "2:cjc155_1967"
    INDEX 01 05:46:42
  TRACK 182 AUDIO
    TITLE "3:cjc155_1968"
    INDEX 01 05:48:55
  TRACK 183 AUDIO
    TITLE "2:cjc155_1969"
    INDEX 01 05:50:71
  TRACK 184 AUDIO
    TITLE "3:cjc155_1970"
    INDEX 01 05:53:07
  TRACK 185 AUDIO
    TITLE "2:cjc155_1971"
    INDEX 01 05:55:27
  TRACK 186 AUDIO
    TITLE "3:cjc155_1972"
    INDEX 01 05:56:58
  TRACK 187 AUDIO
    TITLE "2:cjc155_1973"
    INDEX 01 05:58:26
  TRACK 188 AUDIO
    TITLE "3:cjc155_1974"
    INDEX 01 06:01:18
  TRACK 189 AUDIO
    TITLE "2:cjc155_1975"
    INDEX 01 06:04:20
  TRACK 190 AUDIO
    TITLE "3:cjc155_1976"
    INDEX 01 06:06:60
  TRACK 191 AUDIO
    TITLE "2:cjc155_1977"
    INDEX 01 06:09:37
  TRACK 192 AUDIO
    TITLE "3:cjc155_1978"
    INDEX 01 06:10:58
  TRACK 193 AUDIO
    TITLE "2:cjc155_1979"
    INDEX 01 06:12:12
  TRACK 194 AUDIO
    TITLE "3:cjc155_1980"
    INDEX 01 06:14:29
  TRACK 195 AUDIO
    TITLE "2:cjc155_1981"
    INDEX 01 06:16:53
  TRACK 196 AUDIO
    TITLE "3:cjc155_1982"
    INDEX 01 06:18:13
  TRACK 197 AUDIO
    TITLE "2:cjc155_1983"
    INDEX 01 06:19:51
  TRACK 198 AUDIO
    TITLE "3:cjc155_1984"
    INDEX 01 06:21:33
  TRACK 199 AUDIO
    TITLE "2:cjc155_1985"
    INDEX 01 06:23:20
  TRACK 200 AUDIO
    TITLE "3:cjc155_1986"
    INDEX 01 06:25:19
  TRACK 201 AUDIO
    TITLE "2:cjc155_1987"
    INDEX 01 06:27:15
  TRACK 202 AUDIO
    TITLE "3:cjc155_1988"
    INDEX 01 06:29:01
  TRACK 203 AUDIO
    TITLE "0:"
    INDEX 01 06:30:69
